/* XPM */
static const char *const icon_xpm[] = {
"48 48 4 1",
" 	c None",
".	c #007C00",
"+	c #AEADAD",
"@	c #ADACAC",
"................................................",
"................................................",
"................................................",
"................................................",
"................................................",
"................................................",
"................................................",
"................................................",
"................................................",
"..++++++++++++++++++++++++++++++++++++++++++++..",
"..++++++++++++++++++++++++++++++++++++++++++++..",
"..++++++++++++++++++++++++++++++++++++++++++++..",
"..................+++...........................",
"..................+++...........................",
"..++++++++++++++..+++..+++..++++++++++++++++++..",
"..++++++++++++++..+++..+++..++++++++++++++++++..",
"..++++++++++++++..+++..+++..++++++++++++++++++..",
"..+++........+++..+++..+++..+++.................",
"..+++........+++..+++..+++..+++.................",
"..+++........+++..+++..+++..+++.................",
"..+++........+++..+++..+++..++@@@+++++++++++++..",
"..+++........+++..+++..+++..++@@@+++++++++++++..",
"..+++........+++..+++..+++..++@@@@++++++++++++..",
"..+++........+++..+++..+++.................+++..",
"..+++........+++..+++..+++.................+++..",
"..+++........+++..+++..+++.................+++..",
"..+++........+++..+++..+++..+++++@@+++++++++++..",
"..+++........+++..+++..+++..+++++@@+++++++++++..",
"..+++........+++..+++..+++..++++++++++++++++++..",
"..+++........+++..+++..+++......................",
"..+++........+++..+++..+++......................",
"..++++++++++++++..+++..+++++++++++++++++++++++..",
"..++++++++++++++..+++..+++++++++++++++++++++++..",
"..++++++++++++++..+++..+++++++++++++++++++++++..",
"................................................",
"................................................",
"..++++++++++++++++++++++++@+++++++++++++++++++..",
"..++++++++++++++++++++++++@+@+++++++++++++++++..",
"..+++++++++++++@++++++++++@+@@++++++++++++++++..",
"................................................",
"................................................",
"................................................",
"................................................",
"................................................",
"................................................",
"................................................",
"................................................",
"................................................"};
